<svg width="25" height="24" viewBox="0 0 25 24" fill="none" xmlns="http://www.w3.org/2000/svg">
<g clip-path="url(#clip0_1_292)">
<path d="M18.0916 8.00204C18.0916 6.41075 17.4594 4.88462 16.3342 3.7594C15.209 2.63419 13.6829 2.00204 12.0916 2.00204C10.5003 2.00204 8.97413 2.63419 7.84891 3.7594C6.72369 4.88462 6.09155 6.41075 6.09155 8.00204C6.09155 15.002 3.09155 17.002 3.09155 17.002H21.0916C21.0916 17.002 18.0916 15.002 18.0916 8.00204Z" fill="#E3E3E3"/>
<path d="M13.8216 21.002C13.6457 21.3051 13.3934 21.5567 13.0898 21.7316C12.7862 21.9065 12.4419 21.9985 12.0916 21.9985C11.7412 21.9985 11.3969 21.9065 11.0933 21.7316C10.7897 21.5567 10.5374 21.3051 10.3616 21.002" stroke="#E3E3E3" stroke-width="2" stroke-linecap="round" stroke-linejoin="round"/>
<circle cx="17.793" cy="4.70038" r="3.97196" fill="#BB4430"/>
</g>
<defs>
<clipPath id="clip0_1_292">
<rect width="24" height="24" fill="white" transform="translate(0.0915527 0.00204468)"/>
</clipPath>
</defs>
</svg>
