<svg width="41" height="41" viewBox="0 0 41 41" fill="none" xmlns="http://www.w3.org/2000/svg">
<circle cx="20.6108" cy="20.8065" r="14.5666" transform="rotate(30 20.6108 20.8065)" fill="#D15842"/>
<path d="M23.2478 26.0781C22.728 26.9786 21.9851 27.5631 21.0192 27.8318C20.0533 28.1005 19.036 28.0667 17.9672 27.7303L17.3394 28.8178C17.1638 29.1219 16.9134 29.3125 16.5882 29.3898C16.2678 29.4855 15.9557 29.4456 15.6516 29.27C15.3593 29.1013 15.1745 28.8542 15.0972 28.529C15.0132 28.2154 15.0589 27.9066 15.2345 27.6026L15.8016 26.6203C15.2039 26.1972 14.7027 25.7286 14.298 25.2143C13.905 24.7067 13.5844 24.1007 13.3364 23.3961C13.1827 22.9332 13.2037 22.5322 13.3995 22.1931C13.5548 21.9241 13.7892 21.7476 14.1028 21.6636C14.4231 21.5679 14.7236 21.601 15.0042 21.7631C15.2264 21.8913 15.3847 22.0763 15.4791 22.3179C15.6728 22.8195 15.8827 23.2526 16.1089 23.617C16.3418 23.9698 16.6343 24.2868 16.9865 24.568L18.9612 21.1476C16.8606 19.3579 16.3639 17.5042 17.4711 15.5864C18.0315 14.6158 18.818 14.0096 19.8307 13.768C20.8501 13.5146 21.9207 13.6182 23.0425 14.0787L23.3767 13.4999C23.5522 13.1958 23.7968 13.0018 24.1103 12.9178C24.4423 12.8288 24.7604 12.8721 25.0644 13.0476C25.3568 13.2164 25.5416 13.4634 25.6188 13.7887C25.7028 14.1023 25.6571 14.4111 25.4816 14.7151L25.1068 15.3641C25.9996 16.1134 26.6088 16.9485 26.9347 17.8694C27.1185 18.3342 27.1091 18.742 26.9066 19.0928C26.7513 19.3617 26.5135 19.5441 26.1932 19.6398C25.8796 19.7238 25.5884 19.6882 25.3194 19.5329C25.144 19.4316 25.0165 19.2879 24.937 19.1016C24.7549 18.6067 24.4031 18.0684 23.8815 17.4865L22.008 20.7316C22.987 21.6554 23.5818 22.529 23.7925 23.3523C24.01 24.1638 23.8284 25.0725 23.2478 26.0781ZM19.5916 16.6937C19.3688 17.0796 19.3093 17.4662 19.413 17.8535C19.5236 18.2292 19.7781 18.6256 20.1765 19.0427L21.8576 16.131C21.3241 15.9477 20.8637 15.908 20.4764 16.0118C20.089 16.1156 19.7941 16.3429 19.5916 16.6937ZM19.1825 25.6254C19.6026 25.6809 19.9821 25.6583 20.3208 25.5576C20.6664 25.4453 20.9168 25.2546 21.072 24.9857C21.2611 24.6582 21.3296 24.3236 21.2775 23.9817C21.2322 23.6281 21.0638 23.258 20.7724 22.8715L19.1825 25.6254Z" fill="#ED654C"/>
</svg>
