<svg width="40" height="41" viewBox="0 0 40 41" fill="none" xmlns="http://www.w3.org/2000/svg">
<circle cx="20.1021" cy="20.4047" r="14.5666" transform="rotate(-30 20.1021 20.4047)" fill="#D15842"/>
<path d="M25.9861 20.7565C26.5059 21.6569 26.6407 22.5925 26.3905 23.5634C26.1402 24.5342 25.6023 25.3983 24.7766 26.1557L25.4045 27.2432C25.58 27.5472 25.6199 27.8594 25.5242 28.1797C25.4469 28.505 25.2563 28.7554 24.9522 28.9309C24.6599 29.0997 24.3536 29.1362 24.0332 29.0405C23.7197 28.9565 23.4751 28.7625 23.2996 28.4584L22.7325 27.4762C22.0672 27.7823 21.4108 27.982 20.763 28.0753C20.127 28.1619 19.4418 28.1365 18.7077 27.999C18.2299 27.9007 17.8931 27.6819 17.6973 27.3428C17.542 27.0739 17.5064 26.7826 17.5904 26.469C17.6677 26.1438 17.8467 25.9001 18.1273 25.7381C18.3495 25.6098 18.5888 25.5652 18.8452 25.6042C19.3765 25.6873 19.8565 25.722 20.2852 25.7084C20.7071 25.683 21.1279 25.5882 21.5476 25.4239L19.5728 22.0035C16.9726 22.9278 15.1188 22.4311 14.0116 20.5133C13.4512 19.5428 13.3195 18.5585 13.6166 17.5607C13.9068 16.5511 14.5319 15.6758 15.4916 14.9346L15.1574 14.3557C14.9819 14.0517 14.9361 13.7429 15.0201 13.4293C15.1091 13.0973 15.3056 12.8435 15.6096 12.668C15.902 12.4992 16.2083 12.4627 16.5286 12.5584C16.8422 12.6424 17.0867 12.8364 17.2623 13.1405L17.637 13.7895C18.7322 13.391 19.7601 13.2809 20.7205 13.4592C21.2149 13.5324 21.5634 13.7444 21.766 14.0952C21.9212 14.3641 21.9603 14.6612 21.883 14.9865C21.799 15.3001 21.6225 15.5345 21.3535 15.6898C21.1781 15.791 20.9899 15.8296 20.7888 15.8053C20.2692 15.7155 19.627 15.7511 18.8624 15.9119L20.7359 19.1569C22.0254 18.771 23.0794 18.6926 23.8977 18.9218C24.7093 19.1392 25.4054 19.7508 25.9861 20.7565ZM16.0307 19.2306C16.2535 19.6165 16.5586 19.8614 16.946 19.9652C17.3266 20.0573 17.7971 20.0351 18.3576 19.8986L16.6765 16.9868C16.251 17.3572 15.9864 17.736 15.8826 18.1234C15.7788 18.5107 15.8282 18.8798 16.0307 19.2306ZM23.5613 24.0508C23.8194 23.7147 23.9896 23.3747 24.0718 23.031C24.1473 22.6756 24.1074 22.3635 23.9521 22.0945C23.763 21.7671 23.5074 21.5404 23.1853 21.4146C22.8564 21.277 22.4518 21.2378 21.9714 21.2969L23.5613 24.0508Z" fill="#ED654C"/>
</svg>
