<svg xmlns="http://www.w3.org/2000/svg" fill="none" viewBox="24.46 8.7 42.14 43.44">
<g filter="url(#filter0_ddd_54_3)">
<rect x="24.46" y="8.70328" width="42.1416" height="43.4414" rx="3" fill="#FFEADA"/>
</g>
<path d="M41.6934 38.3925C42.1125 38.3925 42.4523 38.0527 42.4523 37.6336C42.4523 37.2144 42.1125 36.8747 41.6934 36.8747C41.2742 36.8747 40.9344 37.2144 40.9344 37.6336C40.9344 38.0527 41.2742 38.3925 41.6934 38.3925Z" stroke="#F8964C" stroke-width="2" stroke-linecap="round" stroke-linejoin="round"/>
<path d="M50.04 38.3925C50.4591 38.3925 50.7989 38.0527 50.7989 37.6336C50.7989 37.2144 50.4591 36.8747 50.04 36.8747C49.6209 36.8747 49.2811 37.2144 49.2811 37.6336C49.2811 38.0527 49.6209 38.3925 50.04 38.3925Z" stroke="#F8964C" stroke-width="2" stroke-linecap="round" stroke-linejoin="round"/>
<path d="M35.6201 22.4552H38.6557L40.6896 32.617C40.759 32.9664 40.9491 33.2802 41.2266 33.5036C41.5041 33.727 41.8513 33.8457 42.2074 33.8388H49.584C49.9402 33.8457 50.2874 33.727 50.5649 33.5036C50.8423 33.2802 51.0324 32.9664 51.1018 32.617L52.3161 26.2498H39.4147" stroke="#F8964C" stroke-width="2" stroke-linecap="round" stroke-linejoin="round"/>
<defs>
<filter id="filter0_ddd_54_3" x="0.459961" y="0.703276" width="90.1416" height="91.4414" filterUnits="userSpaceOnUse" color-interpolation-filters="sRGB">
<feFlood flood-opacity="0" result="BackgroundImageFix"/>
<feColorMatrix in="SourceAlpha" type="matrix" values="0 0 0 0 0 0 0 0 0 0 0 0 0 0 0 0 0 0 127 0" result="hardAlpha"/>
<feOffset/>
<feGaussianBlur stdDeviation="0.5"/>
<feColorMatrix type="matrix" values="0 0 0 0 0 0 0 0 0 0 0 0 0 0 0 0 0 0 0.04 0"/>
<feBlend mode="normal" in2="BackgroundImageFix" result="effect1_dropShadow_54_3"/>
<feColorMatrix in="SourceAlpha" type="matrix" values="0 0 0 0 0 0 0 0 0 0 0 0 0 0 0 0 0 0 127 0" result="hardAlpha"/>
<feOffset dy="2"/>
<feGaussianBlur stdDeviation="3"/>
<feColorMatrix type="matrix" values="0 0 0 0 0 0 0 0 0 0 0 0 0 0 0 0 0 0 0.04 0"/>
<feBlend mode="normal" in2="effect1_dropShadow_54_3" result="effect2_dropShadow_54_3"/>
<feColorMatrix in="SourceAlpha" type="matrix" values="0 0 0 0 0 0 0 0 0 0 0 0 0 0 0 0 0 0 127 0" result="hardAlpha"/>
<feOffset dy="16"/>
<feGaussianBlur stdDeviation="12"/>
<feColorMatrix type="matrix" values="0 0 0 0 0 0 0 0 0 0 0 0 0 0 0 0 0 0 0.06 0"/>
<feBlend mode="normal" in2="effect2_dropShadow_54_3" result="effect3_dropShadow_54_3"/>
<feBlend mode="normal" in="SourceGraphic" in2="effect3_dropShadow_54_3" result="shape"/>
</filter>
</defs>
</svg>