<svg width="54" height="35" viewBox="0 0 54 35" fill="none" xmlns="http://www.w3.org/2000/svg">
<path d="M21.7828 23.941C21.7828 29.9516 16.9103 34.8241 10.8997 34.8241C4.88914 34.8241 0.0166168 29.9516 0.0166168 23.941C0.0166168 20.772 1.37107 17.9194 3.53264 15.9304C5.47089 14.147 8.05811 13.0579 10.8997 13.0579C16.9103 13.0579 21.7828 17.9305 21.7828 23.941Z" fill="#D15842"/>
<path d="M53.1921 23.941C53.1921 29.9516 48.3196 34.8241 42.309 34.8241C36.2985 34.8241 31.4259 29.9516 31.4259 23.941C31.4259 23.1732 31.5054 22.424 31.6567 21.7012C32.6893 16.7652 37.0662 13.0579 42.309 13.0579C48.3196 13.0579 53.1921 17.9305 53.1921 23.941Z" fill="#D15842"/>
<path d="M40.9701 10.9305C40.9701 16.408 36.9235 20.9404 31.6567 21.7012C31.1441 21.7752 30.62 21.8135 30.087 21.8135C24.8045 21.8135 20.4011 18.05 19.4118 13.0579C19.2754 12.3699 19.2039 11.6585 19.2039 10.9305C19.2039 9.97427 19.3272 9.04688 19.5588 8.16332C20.783 3.49293 25.0326 0.0473938 30.087 0.0473938C36.0976 0.0473938 40.9701 4.91991 40.9701 10.9305Z" fill="#D15842"/>
<path d="M21.7828 23.941C21.7828 29.9516 16.9103 34.8241 10.8997 34.8241H42.309C36.2985 34.8241 31.4259 29.9516 31.4259 23.941C31.4259 23.1732 31.5054 22.424 31.6567 21.7012C31.1441 21.7752 30.62 21.8135 30.087 21.8135C24.8045 21.8135 20.4011 18.05 19.4118 13.0579H12.3127H10.8997C16.9103 13.0579 21.7828 17.9305 21.7828 23.941Z" fill="#D15842"/>
<path d="M19.4118 13.0579C19.2754 12.3699 19.2039 11.6585 19.2039 10.9305C19.2039 9.97427 19.3272 9.04688 19.5588 8.16332C18.6494 9.79486 15.927 13.0579 12.3127 13.0579H19.4118Z" fill="#D15842"/>
</svg>
