<svg width="81" height="54" viewBox="0 0 81 54" fill="none" xmlns="http://www.w3.org/2000/svg">
<path d="M33.5436 36.903C33.5436 45.9781 26.1868 53.335 17.1116 53.335C8.03653 53.335 0.679703 45.9781 0.679703 36.903C0.679703 32.1183 2.72473 27.8112 5.98841 24.8082C8.91491 22.1154 12.8213 20.4711 17.1116 20.4711C26.1868 20.4711 33.5436 27.8279 33.5436 36.903Z" fill="#D15842"/>
<path d="M80.9673 36.903C80.9673 45.9781 73.6105 53.335 64.5354 53.335C55.4603 53.335 48.1034 45.9781 48.1034 36.903C48.1034 35.7438 48.2235 34.6126 48.4518 33.5212C50.011 26.0685 56.6195 20.4711 64.5354 20.4711C73.6105 20.4711 80.9673 27.8279 80.9673 36.903Z" fill="#D15842"/>
<path d="M62.5138 17.2589C62.5138 25.5292 56.4039 32.3725 48.4518 33.5212C47.678 33.633 46.8867 33.6908 46.0818 33.6908C38.106 33.6908 31.4574 28.0083 29.9637 20.4711C29.7578 19.4322 29.6499 18.3582 29.6499 17.2589C29.6499 15.8152 29.8361 14.4149 30.1858 13.0809C32.0341 6.02923 38.4504 0.82695 46.0818 0.82695C55.1569 0.82695 62.5138 8.18378 62.5138 17.2589Z" fill="#D15842"/>
<path d="M33.5436 36.903C33.5436 45.9781 26.1868 53.335 17.1116 53.335H64.5354C55.4603 53.335 48.1034 45.9781 48.1034 36.903C48.1034 35.7438 48.2235 34.6126 48.4518 33.5212C47.678 33.633 46.8867 33.6908 46.0818 33.6908C38.106 33.6908 31.4574 28.0083 29.9637 20.4711H19.245H17.1116C26.1868 20.4711 33.5436 27.8279 33.5436 36.903Z" fill="#D15842"/>
<path d="M29.9637 20.4711C29.7578 19.4322 29.6499 18.3582 29.6499 17.2589C29.6499 15.8152 29.8361 14.4149 30.1858 13.0809C28.8126 15.5443 24.7021 20.4711 19.245 20.4711H29.9637Z" fill="#D15842"/>
</svg>
